# xmcd
#
# Track frame offsets:
# 150
# 13340
# 26381
# 38414
# 53527
# 66802
# 81642
# 96756
# 111483
# 125251
# 137728
# 150439
# 164057
# 177595
# 190781
# 202063
#
# Disc length: 2853 seconds
#
#
# Revision: 2
# Processed by: cddbd v1.5.1PL2 Copyright (c) Steve Scherf et al.
# Submitted via: FreeRIP 2.944 
#
DISCID=dc0b2310
DTITLE=Muddy Waters - I Can't Be Satisfied [CD 4)
DYEAR=2005
DGENRE=Blues
TTITLE0=Walkin' Blues (1950)
TTITLE1=Louisiana Blues (1950)
TTITLE2=Long Distance Call (1951)
TTITLE3=Honey Bee (1951)
TTITLE4=She Moves Me (1951)
TTITLE5=Still A Fool (1951)
TTITLE6=Standing Around Crying (1952)
TTITLE7=Baby Please Don't Go (1953)
TTITLE8=I Want You To Love Me (1953)
TTITLE9=I'm Your Hoochie Coochie Man (1954)
TTITLE10=I Just Want To Make Love To You (1954)
TTITLE11=I'm Ready (1954)
TTITLE12=Young Fashioned Ways (1955)
TTITLE13=Mannish Boy (1955)
TTITLE14=Sugar Sweet
TTITLE15=Trouble No More (1955)
EXTD=Quadromania\nMembran Music Ltd\n24 Bit - 96 kHz
EXTT0=
EXTT1=
EXTT2=
EXTT3=
EXTT4=
EXTT5=
EXTT6=
EXTT7=
EXTT8=
EXTT9=
EXTT10=
EXTT11=
EXTT12=
EXTT13=
EXTT14=
EXTT15=
PLAYORDER=
